#N canvas 827 239 527 327 12;
#X obj 52 116 loadbang;
#X msg 55 159 1;
#X obj 52 201 metro 1000, f 18;
#X obj 18 201 bng 25 250 50 0 empty empty empty 17 7 0 10 #333333 #eeeeee #e4e4e4;
#X msg 96 159 0;
#X obj 154 128 r metro @hv_param 200 5000 1000, f 18;
#X obj 212 436 s Play_Test_Sound_02 @hv_event, f 21;
#X obj 52 436 s Play_Test_Sound_01 @hv_event, f 21;
#X obj 96 241 + 1;
#X obj 52 241 i 0;
#X floatatom 6 241 5 0 0 0 - - - 12;
#X floatatom 6 303 5 0 0 0 - - - 12;
#X obj 52 314 sel 0 1, f 8;
#X text 136 240 Sums 1 on each bang;
#X text -47 240 Debug;
#X obj 52 270 mod 2;
#X text -47 302 Debug;
#X text 111 269 Divide by 2 \, outputs reminder;
#X obj -30 325 print event;
#X text 154 302 Post "Play_Test_Sound_01" when value is 0 and "Play_Test_Sound_02" when value is 1, f 23;
#X text 290 120 min value = 200 \; Max value = 5000 \; Starting value = 1000;
#X text -47 200 Debug;
#X connect 0 0 1 0;
#X connect 1 0 2 0;
#X connect 2 0 3 0;
#X connect 2 0 9 0;
#X connect 4 0 2 0;
#X connect 5 0 2 1;
#X connect 8 0 9 1;
#X connect 9 0 10 0;
#X connect 9 0 8 0;
#X connect 9 0 15 0;
#X connect 12 0 7 0;
#X connect 12 1 6 0;
#X connect 15 0 11 0;
#X connect 15 0 12 0;
#X connect 15 0 18 0;
